#!OML:ASF F:\VICON\USERDATA\INSTALL\rory3\rory3.ASF
:FULLY-SPECIFIED
:DEGREES
365
root -6.95371 18.2439 -15.0895 7.78684 -69.5046 6.74363
lowerback -7.1891 -0.453471 -1.08013
upperback -1.78419 -0.548126 -0.266378
thorax 2.19573 -0.29068 0.282791
lowerneck -17.9988 2.34093 3.74737
upperneck 24.8903 3.74741 -6.47547
head 11.261 1.14544 -2.46431
rclavicle -1.6524e-014 -1.37161e-014
rhumerus -32.634 23.2329 -89.4726
rradius 25.2462
rwrist 6.87837
rhand -19.2759 10.0278
rfingers 7.12502
rthumb 7.03879 -19.8352
lclavicle -1.6524e-014 -1.37161e-014
lhumerus -35.998 -8.20698 78.9061
lradius 36.5093
lwrist 20.7243
lhand -13.581 28.7609
lfingers 7.12502
lthumb 12.5331 58.365
rfemur -21.7263 -8.86864 17.1994
rtibia 28.6478
rfoot -20.6994 3.00716
rtoes -13.3227
lfemur -27.6772 6.39095 -21.2255
ltibia 38.8554
lfoot -21.7887 -1.04606
ltoes -12.9192
366
root -6.96576 18.2392 -15.1329 8.00903 -68.204 6.48045
lowerback -7.11664 -0.473889 -1.19823
upperback -1.75475 -0.568041 -0.184329
thorax 2.18795 -0.300565 0.432257
lowerneck -18.0456 2.219 3.60926
upperneck 24.8004 3.5611 -6.26651
head 11.2172 1.07832 -2.38899
rclavicle 3.66758e-014 7.15625e-015
rhumerus -32.3693 22.8839 -88.8134
rradius 24.8687
rwrist 8.30818
rhand -19.315 10.0806
rfingers 7.12502
rthumb 7.00106 -19.7836
lclavicle 3.66758e-014 7.15625e-015
lhumerus -36.0893 -8.38882 79.0088
lradius 36.3505
lwrist 20.6341
lhand -13.616 28.6097
lfingers 7.12502
lthumb 12.4993 58.2159
rfemur -21.6287 -9.13842 17.4634
rtibia 28.9317
rfoot -21.2504 2.06936
rtoes -14.335
lfemur -27.7036 7.92956 -21.8301
ltibia 39.3484
lfoot -21.8708 0.038258
ltoes -12.5688
367
root -6.97545 18.2321 -15.1777 8.27396 -66.7495 6.20757
lowerback -7.03811 -0.537816 -1.24842
upperback -1.75003 -0.650679 -0.142831
thorax 2.15153 -0.341401 0.496528
lowerneck -18.0633 2.07 3.49339
upperneck 24.6818 3.32458 -6.04028
head 11.1549 0.993615 -2.31824
rclavicle 2.20651e-014 5.56597e-015
rhumerus -32.2252 23.1866 -88.6826
rradius 24.4734
rwrist 7.78459
rhand -19.6914 9.90956
rfingers 7.12502
rthumb 6.63773 -19.9664
lclavicle 2.20651e-014 5.56597e-015
lhumerus -36.1921 -8.61155 79.0491
lradius 36.1878
lwrist 20.4637
lhand -13.5977 28.4245
lfingers 7.12502
lthumb 12.517 58.0296
rfemur -21.5532 -9.42804 17.7478
rtibia 29.2136
rfoot -21.6553 1.10191
rtoes -14.3394
lfemur -27.7697 9.21966 -22.3477
ltibia 39.8551
lfoot -22.2095 0.706389
ltoes -13.0901
368
root -6.98327 18.2227 -15.218 8.68314 -65.2807 5.80042
lowerback -6.98272 -0.614486 -1.19798
upperback -1.78352 -0.758234 -0.0968107
thorax 2.08814 -0.394274 0.506952
lowerneck -18.0355 1.94879 3.43773
upperneck 24.5816 3.1175 -5.84085
head 11.0948 0.924288 -2.26381
rclavicle 9.93923e-017 1.41137e-014
rhumerus -32.1012 23.6046 -88.6642
rradius 24.0665
rwrist 6.37327
rhand -19.8643 9.96695
rfingers 7.12502
rthumb 6.47081 -19.9142
lclavicle 9.93923e-017 1.41137e-014
lhumerus -36.3436 -8.86427 79.1014
lradius 36.0612
lwrist 20.3629
lhand -13.4845 28.607
lfingers 7.12502
lthumb 12.6262 58.2054
rfemur -21.5489 -9.85145 18.1113
rtibia 29.5395
rfoot -21.9868 0.273582
rtoes -14.3661
lfemur -27.8423 10.3039 -22.7393
ltibia 40.3456
lfoot -22.4739 1.35467
ltoes -14.1138
369
root -6.99408 18.2123 -15.2549 8.86266 -63.8323 5.55437
lowerback -6.89527 -0.686525 -1.18331
upperback -1.81309 -0.856756 -0.0735465
thorax 2.01097 -0.44269 0.515398
lowerneck -17.9811 1.81737 3.33511
upperneck 24.5407 2.89152 -5.56747
head 11.0495 0.850024 -2.17837
rclavicle -1.62506e-014 -1.41137e-014
rhumerus -31.8175 22.7774 -88.0667
rradius 23.7165
rwrist 6.49357
rhand -19.8139 10.3535
rfingers 7.12502
rthumb 6.51945 -19.5262
lclavicle -1.62506e-014 -1.41137e-014
lhumerus -36.5338 -9.02699 79.1203
lradius 35.9201
lwrist 20.0223
lhand -13.3462 28.6692
lfingers 7.12502
lthumb 12.7595 58.2593
rfemur -21.4831 -10.3845 18.4082
rtibia 29.9164
rfoot -22.3701 -0.316657
rtoes -14.0199
lfemur -27.7565 11.3415 -23.1259
ltibia 40.7825
lfoot -22.5899 1.94551
ltoes -15.0194
370
root -7.00643 18.2028 -15.2906 8.59333 -62.4611 5.83225
lowerback -6.89756 -0.750603 -1.45974
upperback -1.79124 -0.920963 -0.108527
thorax 2.0395 -0.475528 0.628826
lowerneck -18.0353 1.67127 3.29913
upperneck 24.5047 2.64677 -5.3774
head 11.0296 0.761821 -2.13765
rclavicle -3.90363e-014 -1.13307e-014
rhumerus -31.2572 20.8162 -86.977
rradius 23.331
rwrist 8.18413
rhand -19.6628 10.6776
rfingers 7.12502
rthumb 6.66537 -19.1975
lclavicle -3.90363e-014 -1.13307e-014
lhumerus -36.6049 -9.15158 79.1102
lradius 35.7468
lwrist 19.5126
lhand -13.1598 28.5773
lfingers 7.12502
lthumb 12.9391 58.1561
rfemur -21.45 -10.6947 18.391
rtibia 30.2698
rfoot -22.7596 -0.915109
rtoes -12.7437
lfemur -27.6238 12.2126 -23.7153
ltibia 41.1653
lfoot -22.7606 2.35969
ltoes -15.1207
371
root -7.01867 18.1988 -15.3241 8.47006 -61.1084 5.9871
lowerback -6.96717 -0.823147 -1.69411
upperback -1.75377 -0.998372 -0.114886
thorax 2.12225 -0.515373 0.745802
lowerneck -18.0975 1.52533 3.22824
upperneck 24.4203 2.41867 -5.21228
head 10.9948 0.675229 -2.09681
rclavicle 7.50412e-015 6.36111e-015
rhumerus -30.8203 19.5826 -86.1154
rradius 22.9855
rwrist 9.38009
rhand -19.7268 10.899
rfingers 7.12502
rthumb 6.60352 -18.9781
lclavicle 7.50412e-015 6.36111e-015
lhumerus -36.6737 -9.27303 79.1557
lradius 35.6069
lwrist 19.1195
lhand -13.1469 28.4967
lfingers 7.12502
lthumb 12.9516 58.0747
rfemur -21.4436 -10.917 18.3955
rtibia 30.592
rfoot -23.1648 -1.41292
rtoes -11.1432
lfemur -27.4852 12.9916 -24.2166
ltibia 41.5002
lfoot -22.9138 2.79176
ltoes -15.0834
372
root -7.03364 18.1965 -15.3559 8.83174 -59.7778 5.56855
lowerback -7.06071 -0.873602 -1.65041
upperback -1.7236 -1.06768 -0.0299232
thorax 2.20802 -0.550193 0.800972
lowerneck -18.0535 1.37011 3.10042
upperneck 24.2857 2.19371 -5.04338
head 10.9208 0.586456 -2.04352
rclavicle -8.59744e-015 -1.19271e-015
rhumerus -30.7303 19.9752 -85.8655
rradius 22.8311
rwrist 8.81955
rhand -20.202 10.6223
rfingers 7.12502
rthumb 6.14476 -19.2686
lclavicle -8.59744e-015 -1.19271e-015
lhumerus -36.8302 -9.48905 79.3178
lradius 35.4983
lwrist 19.0612
lhand -13.1793 28.4783
lfingers 7.12502
lthumb 12.9203 58.0583
rfemur -21.4117 -11.141 18.7364
rtibia 30.9371
rfoot -23.6604 -1.93282
rtoes -10.3316
lfemur -27.2218 13.736 -24.3445
ltibia 41.7631
lfoot -23.0108 3.22251
ltoes -14.4562
373
root -7.04669 18.1896 -15.3857 9.00212 -58.4754 5.37009
lowerback -7.16902 -0.902828 -1.68581
upperback -1.68916 -1.10151 -0.000563945
thorax 2.30591 -0.56781 0.846036
lowerneck -17.9561 1.19734 3.02581
upperneck 24.0616 1.93136 -4.88836
head 10.8032 0.485464 -2.00795
rclavicle -1.27719e-014 1.39149e-015
rhumerus -30.546 19.8644 -85.5176
rradius 22.6502
rwrist 8.23213
rhand -20.6393 10.2711
rfingers 7.12502
rthumb 5.72256 -19.6317
lclavicle -1.27719e-014 1.39149e-015
lhumerus -36.9478 -9.88293 79.52
lradius 35.4045
lwrist 19.1846
lhand -13.0161 28.2874
lfingers 7.12502
lthumb 13.0777 57.8574
rfemur -21.4054 -11.4989 19.0033
rtibia 31.285
rfoot -24.0598 -2.49433
rtoes -10.5834
lfemur -26.9893 14.4671 -24.5766
ltibia 41.9625
lfoot -22.8174 3.61976
ltoes -12.1984
374
root -7.05814 18.1777 -15.4153 8.74269 -57.1738 5.64487
lowerback -7.14994 -0.97519 -2.00149
upperback -1.70966 -1.17457 -0.0214084
thorax 2.28183 -0.605377 0.99556
lowerneck -17.8791 1.04856 2.94303
upperneck 23.9293 1.70554 -4.7287
head 10.7262 0.398767 -1.96568
rclavicle 2.68608e-014 -2.00773e-014
rhumerus -30.2026 18.7041 -84.8009
rradius 22.3501
rwrist 8.67748
rhand -20.7232 10.1867
rfingers 7.12502
rthumb 5.64158 -19.7182
lclavicle 2.68608e-014 -2.00773e-014
lhumerus -37.1454 -10.2728 79.7527
lradius 35.3232
lwrist 19.2683
lhand -12.9501 28.1805
lfingers 7.12502
lthumb 13.1413 57.7464
rfemur -21.3526 -11.9441 18.9831
rtibia 31.6055
rfoot -24.4765 -2.99346
rtoes -10.7232
lfemur -26.8655 15.1943 -25.0919
ltibia 42.1171
lfoot -22.5851 4.09141
ltoes -9.83295
375
root -7.07392 18.1647 -15.4404 8.3993 -55.9198 5.87218
lowerback -7.0786 -1.02986 -2.29189
upperback -1.66116 -1.22521 -0.0578039
thorax 2.29887 -0.632035 1.1171
lowerneck -17.923 0.890674 2.84631
upperneck 23.8823 1.46261 -4.53598
head 10.7037 0.304879 -1.91338
rclavicle 3.87879e-014 -1.98785e-015
rhumerus -29.8185 17.4247 -84.0512
rradius 22.0487
rwrist 9.16447
rhand -20.8216 10.1035
rfingers 7.12502
rthumb 5.54663 -19.8039
lclavicle 3.87879e-014 -1.98785e-015
lhumerus -37.2001 -10.2666 79.7928
lradius 35.1154
lwrist 18.7324
lhand -12.8002 28.1718
lfingers 7.12502
lthumb 13.2858 57.7284
rfemur -21.1358 -12.3631 18.927
rtibia 31.934
rfoot -24.9163 -3.43987
rtoes -10.3099
lfemur -26.4829 15.9815 -25.5008
ltibia 42.2455
lfoot -22.6398 4.54932
ltoes -10.2233
